<?xml version="1.0" encoding="us-ascii" standalone="no"?><svg xmlns="http://www.w3.org/2000/svg" xmlns:xlink="http://www.w3.org/1999/xlink" contentStyleType="text/css" height="683px" preserveAspectRatio="none" style="width:544px;height:683px;background:#FFFFFF;" version="1.1" viewBox="0 0 544 683" width="544px" zoomAndPan="magnify"><defs/><g><!--entity user--><g id="elem_user"><ellipse cx="284.5" cy="14" fill="#0000FF" rx="8" ry="8" style="stroke:#0000FF;stroke-width:2.0;"/><path d="M284.5,22 L284.5,49 M271.5,30 L297.5,30 M284.5,49 L271.5,64 M284.5,49 L297.5,64 " fill="none" style="stroke:#0000FF;stroke-width:2.0;"/><text fill="#0000FF" font-family="sans-serif" font-size="14" lengthAdjust="spacing" textLength="119" x="225" y="79.9951">Human Operator</text></g><!--entity OCPCR--><g id="elem_OCPCR"><path d="M6,162.5 L6,193.7969 A2.5,2.5 0 0 0 8.5,196.2969 L228.5,196.2969 A2.5,2.5 0 0 0 231,193.7969 L231,170 L221,160 L8.5,160 A2.5,2.5 0 0 0 6,162.5 " fill="#FFC0CB" style="stroke:#FF0000;stroke-width:2.0;"/><path d="M221,160 L221,167.5 A2.5,2.5 0 0 0 223.5,170 L231,170 " fill="#FFC0CB" style="stroke:#FF0000;stroke-width:2.0;"/><text fill="#FF0000" font-family="sans-serif" font-size="14" lengthAdjust="spacing" textLength="205" x="16" y="182.9951">OpenStack Control Plane CR</text></g><!--entity ODPCR--><g id="elem_ODPCR"><path d="M266,162.5 L266,193.7969 A2.5,2.5 0 0 0 268.5,196.2969 L534.5,196.2969 A2.5,2.5 0 0 0 537,193.7969 L537,170 L527,160 L268.5,160 A2.5,2.5 0 0 0 266,162.5 " fill="#FFC0CB" style="stroke:#FF0000;stroke-width:2.0;"/><path d="M527,160 L527,167.5 A2.5,2.5 0 0 0 529.5,170 L537,170 " fill="#FFC0CB" style="stroke:#FF0000;stroke-width:2.0;"/><text fill="#FF0000" font-family="sans-serif" font-size="14" lengthAdjust="spacing" textLength="251" x="276" y="182.9951">OpenStack Data Plane NodeSet CR</text></g><!--entity AEECR--><g id="elem_AEECR"><path d="M302,388.5 L302,419.7969 A2.5,2.5 0 0 0 304.5,422.2969 L498.5,422.2969 A2.5,2.5 0 0 0 501,419.7969 L501,396 L491,386 L304.5,386 A2.5,2.5 0 0 0 302,388.5 " fill="#F1F1F1" style="stroke:#FF0000;stroke-width:2.0;"/><path d="M491,386 L491,393.5 A2.5,2.5 0 0 0 493.5,396 L501,396 " fill="#F1F1F1" style="stroke:#FF0000;stroke-width:2.0;"/><text fill="#FF0000" font-family="sans-serif" font-size="14" lengthAdjust="spacing" textLength="179" x="312" y="408.9951">OpenStack AnsibleEE CR</text></g><!--entity OSOp--><g id="elem_OSOp"><rect fill="#F1F1F1" height="36.2969" rx="2.5" ry="2.5" style="stroke:#181818;stroke-width:2.0;" width="170" x="33.5" y="273"/><text fill="#000000" font-family="sans-serif" font-size="14" lengthAdjust="spacing" textLength="150" x="43.5" y="295.9951">OpenStack Operator</text></g><!--entity DOp--><g id="elem_DOp"><rect fill="#F1F1F1" height="36.2969" rx="2.5" ry="2.5" style="stroke:#181818;stroke-width:2.0;" width="164" x="319.5" y="273"/><text fill="#000000" font-family="sans-serif" font-size="14" lengthAdjust="spacing" textLength="144" x="329.5" y="295.9951">Dataplane Operator</text></g><!--entity AEEOp--><g id="elem_AEEOp"><rect fill="#F1F1F1" height="36.2969" rx="2.5" ry="2.5" style="stroke:#181818;stroke-width:2.0;" width="161" x="192" y="508"/><text fill="#000000" font-family="sans-serif" font-size="14" lengthAdjust="spacing" textLength="141" x="202" y="530.9951">AnsibleEE Operator</text></g><g id="elem_AJI"><ellipse cx="159.5656" cy="654.1131" fill="#F1F1F1" rx="83.5656" ry="19.1131" style="stroke:#008000;stroke-width:2.0;"/><text fill="#000000" font-family="sans-serif" font-size="14" lengthAdjust="spacing" textLength="127" x="95.6623" y="657.0974">Ansible Job - Infra</text></g><g id="elem_AJNC"><ellipse cx="385.2877" cy="653.8575" fill="#F1F1F1" rx="107.2877" ry="23.8575" style="stroke:#008000;stroke-width:2.0;"/><text fill="#000000" font-family="sans-serif" font-size="14" lengthAdjust="spacing" textLength="180" x="295.2877" y="656.7042">Ansible Job - Nova Config</text></g><!--entity AEEconfigmap--><g id="elem_AEEconfigmap"><path d="M390.5,499 L431.5,499 A3.75,3.75 0 0 1 434,501.5 L441,520 L520.5,520 A2.5,2.5 0 0 1 523,522.5 L523,550.7969 A2.5,2.5 0 0 1 520.5,553.2969 L390.5,553.2969 A2.5,2.5 0 0 1 388,550.7969 L388,501.5 A2.5,2.5 0 0 1 390.5,499 " fill="#F1F1F1" style="stroke:#181818;stroke-width:2.0;"/><line style="stroke:#181818;stroke-width:2.0;" x1="388" x2="441" y1="520" y2="520"/><text fill="#000000" font-family="sans-serif" font-size="14" lengthAdjust="spacing" textLength="105" x="398" y="539.9951">AEEconfigmap</text></g><!--link user to OCPCR--><g id="link_user_OCPCR"><path d="M236.04,83.181 C204.268,108.541 168.9674,136.717 144.7764,156.026 " fill="none" id="user-to-OCPCR" style="stroke:#FF0000;stroke-width:2.0;"/><polygon fill="#FF0000" points="140.087,159.769,149.6164,157.2807,143.9948,156.6498,144.6257,151.0283,140.087,159.769" style="stroke:#FF0000;stroke-width:2.0;"/><text fill="#FF0000" font-family="sans-serif" font-size="13" lengthAdjust="spacing" textLength="45" x="197.5" y="126.0669">applies</text></g><!--link user to ODPCR--><g id="link_user_ODPCR"><path d="M318.656,83.181 C341.049,108.541 365.2636,135.9624 382.3136,155.2714 " fill="none" id="user-to-ODPCR" style="stroke:#FF0000;stroke-width:2.0;"/><polygon fill="#FF0000" points="386.285,159.769,383.3263,150.3751,382.9755,156.021,377.3295,155.6702,386.285,159.769" style="stroke:#FF0000;stroke-width:2.0;"/><text fill="#FF0000" font-family="sans-serif" font-size="13" lengthAdjust="spacing" textLength="45" x="357.5" y="126.0669">applies</text></g><!--reverse link OCPCR to OSOp--><g id="link_OCPCR_OSOp"><path d="M118.5,202.344 C118.5,223.197 118.5,251.979 118.5,272.778 " fill="none" id="OCPCR-backto-OSOp" style="stroke:#A52A2A;stroke-width:2.0;"/><polygon fill="#A52A2A" points="118.5,196.344,114.5,205.344,118.5,201.344,122.5,205.344,118.5,196.344" style="stroke:#A52A2A;stroke-width:2.0;"/><text fill="#A52A2A" font-family="sans-serif" font-size="13" lengthAdjust="spacing" textLength="64" x="119.5" y="239.0669">reconciles</text></g><!--reverse link ODPCR to DOp--><g id="link_ODPCR_DOp"><path d="M401.5,202.344 C401.5,223.197 401.5,251.979 401.5,272.778 " fill="none" id="ODPCR-backto-DOp" style="stroke:#A52A2A;stroke-width:2.0;"/><polygon fill="#A52A2A" points="401.5,196.344,397.5,205.344,401.5,201.344,405.5,205.344,401.5,196.344" style="stroke:#A52A2A;stroke-width:2.0;"/><text fill="#A52A2A" font-family="sans-serif" font-size="13" lengthAdjust="spacing" textLength="64" x="402.5" y="239.0669">reconciles</text></g><!--link DOp to AEECR--><g id="link_DOp_AEECR"><path d="M401.5,309.344 C401.5,330.197 401.5,358.979 401.5,379.778 " fill="none" id="DOp-to-AEECR" style="stroke:#800080;stroke-width:2.0;"/><polygon fill="#800080" points="401.5,385.778,405.5,376.778,401.5,380.778,397.5,376.778,401.5,385.778" style="stroke:#800080;stroke-width:2.0;"/><text fill="#800080" font-family="sans-serif" font-size="13" lengthAdjust="spacing" textLength="48" x="402.5" y="352.0669">creates</text></g><!--reverse link AEECR to AEEOp--><g id="link_AEECR_AEEOp"><path d="M377.6765,426.3117 C367.8495,435.1437 360.216,442.08 349.5,452 C329.088,470.896 305.966,492.898 290.433,507.768 " fill="none" id="AEECR-backto-AEEOp" style="stroke:#A52A2A;stroke-width:2.0;"/><polygon fill="#A52A2A" points="382.139,422.301,372.7714,425.342,378.4202,425.6433,378.119,431.2921,382.139,422.301" style="stroke:#A52A2A;stroke-width:2.0;"/><text fill="#A52A2A" font-family="sans-serif" font-size="13" lengthAdjust="spacing" textLength="64" x="350.5" y="465.0669">reconciles</text></g><!--link AEEOp to AJI--><g id="link_AEEOp_AJI"><path d="M257.025,544.256 C235.627,568.115 201.2029,606.4987 179.5229,630.6736 " fill="none" id="AEEOp-to-AJI" style="stroke:#0000FF;stroke-width:2.0;"/><polygon fill="#0000FF" points="175.517,635.1405,184.5037,631.1108,178.8552,631.4181,178.5479,625.7696,175.517,635.1405" style="stroke:#0000FF;stroke-width:2.0;"/><text fill="#0000FF" font-family="sans-serif" font-size="13" lengthAdjust="spacing" textLength="37" x="219.5" y="596.0669">yields</text></g><!--link AEEOp to AJNC--><g id="link_AEEOp_AJNC"><path d="M287.975,544.256 C308.043,566.632 339.0861,601.2461 361.2491,625.9592 " fill="none" id="AEEOp-to-AJNC" style="stroke:#0000FF;stroke-width:2.0;"/><polygon fill="#0000FF" points="365.255,630.426,362.224,621.0551,361.9167,626.7036,356.2682,626.3964,365.255,630.426" style="stroke:#0000FF;stroke-width:2.0;"/><text fill="#0000FF" font-family="sans-serif" font-size="13" lengthAdjust="spacing" textLength="37" x="336.5" y="596.0669">yields</text></g><!--link AEECR to AEEconfigmap--><g id="link_AEECR_AEEconfigmap"><path d="M409.237,422.193 C418.219,442.154 430.6738,482.0336 441.1348,505.2796 " fill="none" id="AEECR-to-AEEconfigmap" style="stroke:#008000;stroke-width:2.0;"/><polygon fill="#008000" points="443.597,510.7511,443.5513,500.9024,441.5451,506.1915,436.256,504.1854,443.597,510.7511" style="stroke:#008000;stroke-width:2.0;"/><text fill="#008000" font-family="sans-serif" font-size="13" lengthAdjust="spacing" textLength="49" x="430.5" y="465.0669">mounts</text></g><!--SRC=[dPFTZe8m48NlUOg9NhCFe9jD392iNeZH9nXWCCJQDgNipzllbAA21ADxGyeatvapFLFChJ8m-spEA27LP93_Pu0rD3KPc6UYeQMe92skfxTCYM9fwSUsjI0eAq4mOrWUBEOdY9IqHWdO2PG4qRwLIwDTj8UvhkJ9wnagxkMuD1ABqMAdj5K57SXU5UF_AQvaNMM2akGYj4eI9_H88p2KMvJ7eTBWlj93ghr8o_O9DuDkHnWGyIHmipW0sEWG2JYa7EiR0HkLGGXhMHhqo6RTJNOqHF8ssnIwLL_e4YohOoUmZIOKWfA_l2HiAs-1CuxS6GZ3Zqlu3suOO06ejQYexc7nAvXlyXw6lIWMcL7VShIshiWatxYIEQy7m_45Zbzc7U7izlT8DqQBqNlnLMSwDuIMMS-ulhrmd-xicRRtDUUfTyhaRqMY65BNS9_2s6etw5tWzxlX-RRefZshHjhw3m00]--></g></svg>