<?xml version="1.0" encoding="us-ascii" standalone="no"?><svg xmlns="http://www.w3.org/2000/svg" xmlns:xlink="http://www.w3.org/1999/xlink" contentStyleType="text/css" height="1139px" preserveAspectRatio="none" style="width:724px;height:1139px;background:#FFFFFF;" version="1.1" viewBox="0 0 724 1139" width="724px" zoomAndPan="magnify"><defs/><g><!--entity user--><g id="elem_user"><ellipse cx="383" cy="14" fill="#0000FF" rx="8" ry="8" style="stroke:#0000FF;stroke-width:2.0;"/><path d="M383,22 L383,49 M370,30 L396,30 M383,49 L370,64 M383,49 L396,64 " fill="none" style="stroke:#0000FF;stroke-width:2.0;"/><text fill="#0000FF" font-family="sans-serif" font-size="14" lengthAdjust="spacing" textLength="119" x="323.5" y="79.9951">Human Operator</text></g><!--entity OCPCR--><g id="elem_OCPCR"><path d="M145.5,162.5 L145.5,193.7969 A2.5,2.5 0 0 0 148,196.2969 L368,196.2969 A2.5,2.5 0 0 0 370.5,193.7969 L370.5,170 L360.5,160 L148,160 A2.5,2.5 0 0 0 145.5,162.5 " fill="#FFC0CB" style="stroke:#FF0000;stroke-width:2.0;"/><path d="M360.5,160 L360.5,167.5 A2.5,2.5 0 0 0 363,170 L370.5,170 " fill="#FFC0CB" style="stroke:#FF0000;stroke-width:2.0;"/><text fill="#FF0000" font-family="sans-serif" font-size="14" lengthAdjust="spacing" textLength="205" x="155.5" y="182.9951">OpenStack Control Plane CR</text></g><!--entity ODPCR--><g id="elem_ODPCR"><path d="M405.5,162.5 L405.5,193.7969 A2.5,2.5 0 0 0 408,196.2969 L608,196.2969 A2.5,2.5 0 0 0 610.5,193.7969 L610.5,170 L600.5,160 L408,160 A2.5,2.5 0 0 0 405.5,162.5 " fill="#FFC0CB" style="stroke:#FF0000;stroke-width:2.0;"/><path d="M600.5,160 L600.5,167.5 A2.5,2.5 0 0 0 603,170 L610.5,170 " fill="#FFC0CB" style="stroke:#FF0000;stroke-width:2.0;"/><text fill="#FF0000" font-family="sans-serif" font-size="14" lengthAdjust="spacing" textLength="185" x="415.5" y="182.9951">OpenStack Data Plane CR</text></g><!--entity ODPNCR--><g id="elem_ODPNCR"><path d="M6,372.5 L6,403.7969 A2.5,2.5 0 0 0 8.5,406.2969 L249.5,406.2969 A2.5,2.5 0 0 0 252,403.7969 L252,380 L242,370 L8.5,370 A2.5,2.5 0 0 0 6,372.5 " fill="#F1F1F1" style="stroke:#FF0000;stroke-width:2.0;"/><path d="M242,370 L242,377.5 A2.5,2.5 0 0 0 244.5,380 L252,380 " fill="#F1F1F1" style="stroke:#FF0000;stroke-width:2.0;"/><text fill="#FF0000" font-family="sans-serif" font-size="14" lengthAdjust="spacing" textLength="226" x="16" y="392.9951">OpenStack Data Plane Node CR</text></g><!--entity ODPRCR--><g id="elem_ODPRCR"><path d="M287.5,372.5 L287.5,403.7969 A2.5,2.5 0 0 0 290,406.2969 L526,406.2969 A2.5,2.5 0 0 0 528.5,403.7969 L528.5,380 L518.5,370 L290,370 A2.5,2.5 0 0 0 287.5,372.5 " fill="#F1F1F1" style="stroke:#FF0000;stroke-width:2.0;"/><path d="M518.5,370 L518.5,377.5 A2.5,2.5 0 0 0 521,380 L528.5,380 " fill="#F1F1F1" style="stroke:#FF0000;stroke-width:2.0;"/><text fill="#FF0000" font-family="sans-serif" font-size="14" lengthAdjust="spacing" textLength="221" x="297.5" y="392.9951">OpenStack Data Plane Role CR</text></g><!--entity NCR--><g id="elem_NCR"><path d="M563.5,372.5 L563.5,403.7969 A2.5,2.5 0 0 0 566,406.2969 L640,406.2969 A2.5,2.5 0 0 0 642.5,403.7969 L642.5,380 L632.5,370 L566,370 A2.5,2.5 0 0 0 563.5,372.5 " fill="#F1F1F1" style="stroke:#FF0000;stroke-width:2.0;"/><path d="M632.5,370 L632.5,377.5 A2.5,2.5 0 0 0 635,380 L642.5,380 " fill="#F1F1F1" style="stroke:#FF0000;stroke-width:2.0;"/><text fill="#FF0000" font-family="sans-serif" font-size="14" lengthAdjust="spacing" textLength="59" x="573.5" y="392.9951">Nova CR</text></g><!--entity AEECR--><g id="elem_AEECR"><path d="M490.5,860.5 L490.5,891.7969 A2.5,2.5 0 0 0 493,894.2969 L687,894.2969 A2.5,2.5 0 0 0 689.5,891.7969 L689.5,868 L679.5,858 L493,858 A2.5,2.5 0 0 0 490.5,860.5 " fill="#F1F1F1" style="stroke:#FF0000;stroke-width:2.0;"/><path d="M679.5,858 L679.5,865.5 A2.5,2.5 0 0 0 682,868 L689.5,868 " fill="#F1F1F1" style="stroke:#FF0000;stroke-width:2.0;"/><text fill="#FF0000" font-family="sans-serif" font-size="14" lengthAdjust="spacing" textLength="179" x="500.5" y="880.9951">OpenStack AnsibleEE CR</text></g><!--entity NECCR--><g id="elem_NECCR"><path d="M189,616.5 L189,647.7969 A2.5,2.5 0 0 0 191.5,650.2969 L400.5,650.2969 A2.5,2.5 0 0 0 403,647.7969 L403,624 L393,614 L191.5,614 A2.5,2.5 0 0 0 189,616.5 " fill="#F1F1F1" style="stroke:#FF0000;stroke-width:2.0;"/><path d="M393,614 L393,621.5 A2.5,2.5 0 0 0 395.5,624 L403,624 " fill="#F1F1F1" style="stroke:#FF0000;stroke-width:2.0;"/><text fill="#FF0000" font-family="sans-serif" font-size="14" lengthAdjust="spacing" textLength="194" x="199" y="636.9951">Nova External Compute CR</text></g><!--entity NCeCR--><g id="elem_NCeCR"><path d="M152,860.5 L152,891.7969 A2.5,2.5 0 0 0 154.5,894.2969 L259.5,894.2969 A2.5,2.5 0 0 0 262,891.7969 L262,868 L252,858 L154.5,858 A2.5,2.5 0 0 0 152,860.5 " fill="#F1F1F1" style="stroke:#FF0000;stroke-width:2.0;"/><path d="M252,858 L252,865.5 A2.5,2.5 0 0 0 254.5,868 L262,868 " fill="#F1F1F1" style="stroke:#FF0000;stroke-width:2.0;"/><text fill="#FF0000" font-family="sans-serif" font-size="14" lengthAdjust="spacing" textLength="90" x="162" y="880.9951">Nova Cell CR</text></g><!--entity NCoCR--><g id="elem_NCoCR"><path d="M297,860.5 L297,891.7969 A2.5,2.5 0 0 0 299.5,894.2969 L452.5,894.2969 A2.5,2.5 0 0 0 455,891.7969 L455,868 L445,858 L299.5,858 A2.5,2.5 0 0 0 297,860.5 " fill="#F1F1F1" style="stroke:#FF0000;stroke-width:2.0;"/><path d="M445,858 L445,865.5 A2.5,2.5 0 0 0 447.5,868 L455,868 " fill="#F1F1F1" style="stroke:#FF0000;stroke-width:2.0;"/><text fill="#FF0000" font-family="sans-serif" font-size="14" lengthAdjust="spacing" textLength="138" x="307" y="880.9951">Nova Conductor CR</text></g><!--entity OSOp--><g id="elem_OSOp"><rect fill="#F1F1F1" height="36.2969" rx="2.5" ry="2.5" style="stroke:#181818;stroke-width:2.0;" width="170" x="323" y="257"/><text fill="#000000" font-family="sans-serif" font-size="14" lengthAdjust="spacing" textLength="150" x="333" y="279.9951">OpenStack Operator</text></g><!--entity DOp--><g id="elem_DOp"><rect fill="#F1F1F1" height="36.2969" rx="2.5" ry="2.5" style="stroke:#181818;stroke-width:2.0;" width="164" x="214" y="492"/><text fill="#000000" font-family="sans-serif" font-size="14" lengthAdjust="spacing" textLength="144" x="224" y="514.9951">Dataplane Operator</text></g><!--entity NOp--><g id="elem_NOp"><rect fill="#F1F1F1" height="36.2969" rx="2.5" ry="2.5" style="stroke:#181818;stroke-width:2.0;" width="125" x="355.5" y="736"/><text fill="#000000" font-family="sans-serif" font-size="14" lengthAdjust="spacing" textLength="105" x="365.5" y="758.9951">Nova Operator</text></g><!--entity AEEOp--><g id="elem_AEEOp"><rect fill="#F1F1F1" height="36.2969" rx="2.5" ry="2.5" style="stroke:#181818;stroke-width:2.0;" width="161" x="372.5" y="980"/><text fill="#000000" font-family="sans-serif" font-size="14" lengthAdjust="spacing" textLength="141" x="382.5" y="1002.9951">AnsibleEE Operator</text></g><g id="elem_AJI"><ellipse cx="340.0656" cy="1110.1131" fill="#F1F1F1" rx="83.5656" ry="19.1131" style="stroke:#008000;stroke-width:2.0;"/><text fill="#000000" font-family="sans-serif" font-size="14" lengthAdjust="spacing" textLength="127" x="276.1623" y="1113.0974">Ansible Job - Infra</text></g><g id="elem_AJNC"><ellipse cx="565.7877" cy="1109.8575" fill="#F1F1F1" rx="107.2877" ry="23.8575" style="stroke:#008000;stroke-width:2.0;"/><text fill="#000000" font-family="sans-serif" font-size="14" lengthAdjust="spacing" textLength="180" x="475.7877" y="1112.7042">Ansible Job - Nova Config</text></g><!--entity secret--><g id="elem_secret"><path d="M275.5,734 L275.5,758 M275.5,746 L292.5,746 " fill="none" style="stroke:#181818;stroke-width:2.0;"/><ellipse cx="304.5" cy="746" fill="#F1F1F1" rx="12" ry="12" style="stroke:#181818;stroke-width:2.0;"/><text fill="#000000" font-family="sans-serif" font-size="14" lengthAdjust="spacing" textLength="46" x="273" y="774.9951">secret</text></g><!--entity NovaSecret--><g id="elem_NovaSecret"><path d="M434.5,490 L434.5,514 M434.5,502 L451.5,502 " fill="none" style="stroke:#181818;stroke-width:2.0;"/><ellipse cx="463.5" cy="502" fill="#F1F1F1" rx="12" ry="12" style="stroke:#181818;stroke-width:2.0;"/><text fill="#000000" font-family="sans-serif" font-size="14" lengthAdjust="spacing" textLength="83" x="413.5" y="530.9951">NovaSecret</text></g><!--entity configmap--><g id="elem_configmap"><path d="M132,727 L173,727 A3.75,3.75 0 0 1 175.5,729.5 L182.5,748 L234,748 A2.5,2.5 0 0 1 236.5,750.5 L236.5,778.7969 A2.5,2.5 0 0 1 234,781.2969 L132,781.2969 A2.5,2.5 0 0 1 129.5,778.7969 L129.5,729.5 A2.5,2.5 0 0 1 132,727 " fill="#F1F1F1" style="stroke:#181818;stroke-width:2.0;"/><line style="stroke:#181818;stroke-width:2.0;" x1="129.5" x2="182.5" y1="748" y2="748"/><text fill="#000000" font-family="sans-serif" font-size="14" lengthAdjust="spacing" textLength="77" x="139.5" y="767.9951">configmap</text></g><!--entity NovaConfigMap--><g id="elem_NovaConfigMap"><path d="M534.5,483 L575.5,483 A3.75,3.75 0 0 1 578,485.5 L585,504 L671.5,504 A2.5,2.5 0 0 1 674,506.5 L674,534.7969 A2.5,2.5 0 0 1 671.5,537.2969 L534.5,537.2969 A2.5,2.5 0 0 1 532,534.7969 L532,485.5 A2.5,2.5 0 0 1 534.5,483 " fill="#F1F1F1" style="stroke:#181818;stroke-width:2.0;"/><line style="stroke:#181818;stroke-width:2.0;" x1="532" x2="585" y1="504" y2="504"/><text fill="#000000" font-family="sans-serif" font-size="14" lengthAdjust="spacing" textLength="112" x="542" y="523.9951">NovaConfigMap</text></g><!--entity AEEconfigmap--><g id="elem_AEEconfigmap"><path d="M571,971 L612,971 A3.75,3.75 0 0 1 614.5,973.5 L621.5,992 L701,992 A2.5,2.5 0 0 1 703.5,994.5 L703.5,1022.7969 A2.5,2.5 0 0 1 701,1025.2969 L571,1025.2969 A2.5,2.5 0 0 1 568.5,1022.7969 L568.5,973.5 A2.5,2.5 0 0 1 571,971 " fill="#F1F1F1" style="stroke:#181818;stroke-width:2.0;"/><line style="stroke:#181818;stroke-width:2.0;" x1="568.5" x2="621.5" y1="992" y2="992"/><text fill="#000000" font-family="sans-serif" font-size="14" lengthAdjust="spacing" textLength="105" x="578.5" y="1011.9951">AEEconfigmap</text></g><!--link user to OCPCR--><g id="link_user_OCPCR"><path d="M346.509,83.18 C324.08,106.96 296.211,136.496 277.806,156.006 " fill="none" id="user-to-OCPCR" style="stroke:#FF0000;stroke-width:2.0;"/><polygon fill="#FF0000" points="274.255,159.769,283.3406,155.9676,277.6862,156.1321,277.5216,150.4777,274.255,159.769" style="stroke:#FF0000;stroke-width:2.0;"/><text fill="#FF0000" font-family="sans-serif" font-size="13" lengthAdjust="spacing" textLength="45" x="318" y="126.0669">applies</text></g><!--link user to ODPCR--><g id="link_user_ODPCR"><path d="M419.491,83.18 C441.92,106.96 469.789,136.496 488.194,156.006 " fill="none" id="user-to-ODPCR" style="stroke:#FF0000;stroke-width:2.0;"/><polygon fill="#FF0000" points="491.745,159.769,488.4784,150.4777,488.3138,156.1321,482.6594,155.9676,491.745,159.769" style="stroke:#FF0000;stroke-width:2.0;"/><text fill="#FF0000" font-family="sans-serif" font-size="13" lengthAdjust="spacing" textLength="45" x="462" y="126.0669">applies</text></g><!--link OCPCR to OSOp--><g id="link_OCPCR_OSOp"><path d="M285.164,196.204 C310.968,212.547 349.739,237.102 376.8,254.24 " fill="none" id="OCPCR-to-OSOp" style="stroke:#A52A2A;stroke-width:2.0;"/><polygon fill="#A52A2A" points="381.038,256.924,375.5733,248.7303,376.8134,254.2495,371.2942,255.4896,381.038,256.924" style="stroke:#A52A2A;stroke-width:2.0;"/></g><!--link ODPCR to OSOp--><g id="link_ODPCR_OSOp"><path d="M489.658,196.424 C472.884,212.36 448.033,235.968 430.155,252.952 " fill="none" id="ODPCR-to-OSOp" style="stroke:#A52A2A;stroke-width:2.0;"/><polygon fill="#A52A2A" points="426.225,256.686,435.5051,253.3874,429.8501,253.2423,429.9952,247.5873,426.225,256.686" style="stroke:#A52A2A;stroke-width:2.0;"/></g><!--link OSOp to NCR--><g id="link_OSOp_NCR"><path d="M438.041,293.1 C473.254,313.145 531.492,346.295 568.517,367.371 " fill="none" id="OSOp-to-NCR" style="stroke:#800080;stroke-width:2.0;"/><polygon fill="#800080" points="572.924,369.88,567.0831,361.95,568.5793,367.4055,563.1239,368.9016,572.924,369.88" style="stroke:#800080;stroke-width:2.0;"/><text fill="#800080" font-family="sans-serif" font-size="13" lengthAdjust="spacing" textLength="48" x="519" y="336.0669">creates</text></g><!--link OSOp to ODPNCR--><g id="link_OSOp_ODPNCR"><path d="M365.018,293.1 C314.124,313.348 229.614,346.971 176.731,368.01 " fill="none" id="OSOp-to-ODPNCR" style="stroke:#800080;stroke-width:2.0;"/><polygon fill="#800080" points="172.031,369.88,181.8722,370.2691,176.6767,368.0314,178.9144,362.836,172.031,369.88" style="stroke:#800080;stroke-width:2.0;"/><text fill="#800080" font-family="sans-serif" font-size="13" lengthAdjust="spacing" textLength="48" x="287" y="336.0669">creates</text></g><!--link OSOp to ODPRCR--><g id="link_OSOp_ODPRCR"><path d="M408,293.344 C408,312.568 408,343.63 408,364.661 " fill="none" id="OSOp-to-ODPRCR" style="stroke:#800080;stroke-width:2.0;"/><polygon fill="#800080" points="408,369.778,412,360.778,408,364.778,404,360.778,408,369.778" style="stroke:#800080;stroke-width:2.0;"/><text fill="#800080" font-family="sans-serif" font-size="13" lengthAdjust="spacing" textLength="48" x="409" y="336.0669">creates</text></g><!--link ODPNCR to DOp--><g id="link_ODPNCR_DOp"><path d="M152.927,406.193 C183.31,428.025 235.649,465.634 267.899,488.808 " fill="none" id="ODPNCR-to-DOp" style="stroke:#A52A2A;stroke-width:2.0;"/><polygon fill="#A52A2A" points="272.117,491.839,267.142,483.339,268.0565,488.9215,262.474,489.8359,272.117,491.839" style="stroke:#A52A2A;stroke-width:2.0;"/></g><!--link ODPRCR to DOp--><g id="link_ODPRCR_DOp"><path d="M391.953,406.193 C371.826,427.758 337.332,464.715 315.647,487.95 " fill="none" id="ODPRCR-to-DOp" style="stroke:#A52A2A;stroke-width:2.0;"/><polygon fill="#A52A2A" points="312.017,491.839,321.0826,487.9899,315.429,488.1842,315.2348,482.5306,312.017,491.839" style="stroke:#A52A2A;stroke-width:2.0;"/></g><!--link NCR to NOp--><g id="link_NCR_NOp"><path d="M629.303,406.103 C651.668,422.591 681.605,449.881 691,483 C717.831,577.582 707.38,630.466 635,697 C594.649,734.092 533,747.319 485.71,751.715 " fill="none" id="NCR-to-NOp" style="stroke:#A52A2A;stroke-width:2.0;"/><polygon fill="#A52A2A" points="480.6,752.161,489.9134,755.3642,485.5811,751.7267,489.2186,747.3945,480.6,752.161" style="stroke:#A52A2A;stroke-width:2.0;"/></g><!--link DOp to AEECR--><g id="link_DOp_AEECR"><path d="M320.531,528.225 C346.845,547.388 389.022,580.135 420,614 C492.339,693.081 554.563,806.151 578.976,853.183 " fill="none" id="DOp-to-AEECR" style="stroke:#800080;stroke-width:2.0;"/><polygon fill="#800080" points="581.356,857.791,580.7793,847.959,579.0613,853.3487,573.6716,851.6306,581.356,857.791" style="stroke:#800080;stroke-width:2.0;"/><text fill="#800080" font-family="sans-serif" font-size="13" lengthAdjust="spacing" textLength="48" x="487" y="693.0669">creates</text></g><!--link DOp to NECCR--><g id="link_DOp_NECCR"><path d="M296,528.193 C296,549.401 296,585.498 296,608.787 " fill="none" id="DOp-to-NECCR" style="stroke:#800080;stroke-width:2.0;"/><polygon fill="#800080" points="296,613.839,300,604.839,296,608.839,292,604.839,296,613.839" style="stroke:#800080;stroke-width:2.0;"/><text fill="#800080" font-family="sans-serif" font-size="13" lengthAdjust="spacing" textLength="48" x="297" y="580.0669">creates</text></g><!--link AEECR to AEEOp--><g id="link_AEECR_AEEOp"><path d="M570.371,894.193 C545.548,915.936 502.86,953.327 476.378,976.523 " fill="none" id="AEECR-to-AEEOp" style="stroke:#A52A2A;stroke-width:2.0;"/><polygon fill="#A52A2A" points="472.592,979.839,481.9972,976.9164,476.3527,976.5439,476.7252,970.8994,472.592,979.839" style="stroke:#A52A2A;stroke-width:2.0;"/></g><!--link NECCR to NOp--><g id="link_NECCR_NOp"><path d="M319.524,650.13 C330.682,658.651 343.955,669.381 355,680 C371.987,696.332 389.341,716.775 401.523,731.87 " fill="none" id="NECCR-to-NOp" style="stroke:#A52A2A;stroke-width:2.0;"/><polygon fill="#A52A2A" points="404.817,735.978,402.3072,726.4543,401.689,732.0773,396.066,731.4591,404.817,735.978" style="stroke:#A52A2A;stroke-width:2.0;"/></g><!--link AEEOp to AJI--><g id="link_AEEOp_AJI"><path d="M435.344,1016.188 C415.511,1035.4942 383.3,1066.8492 361.885,1087.6962 " fill="none" id="AEEOp-to-AJI" style="stroke:#0000FF;stroke-width:2.0;"/><polygon fill="#0000FF" points="358.281,1091.2043,367.5203,1087.7933,361.864,1087.7169,361.9405,1082.0605,358.281,1091.2043" style="stroke:#0000FF;stroke-width:2.0;"/></g><!--link AEEOp to AJNC--><g id="link_AEEOp_AJNC"><path d="M470.656,1016.188 C488.964,1034.009 517.817,1062.0967 538.992,1082.7091 " fill="none" id="AEEOp-to-AJNC" style="stroke:#0000FF;stroke-width:2.0;"/><polygon fill="#0000FF" points="542.586,1086.2079,538.9265,1077.0641,539.003,1082.7205,533.3467,1082.7969,542.586,1086.2079" style="stroke:#0000FF;stroke-width:2.0;"/></g><!--link NOp to AEECR--><g id="link_NOp_AEECR"><path d="M435.129,772.238 C451.25,787.916 476.512,811.116 501,828 C515.732,838.157 532.919,847.709 548.24,855.515 " fill="none" id="NOp-to-AEECR" style="stroke:#800080;stroke-width:2.0;"/><polygon fill="#800080" points="552.93,857.88,546.6953,850.2558,548.4656,855.6285,543.0929,857.3988,552.93,857.88" style="stroke:#800080;stroke-width:2.0;"/><text fill="#800080" font-family="sans-serif" font-size="13" lengthAdjust="spacing" textLength="48" x="502" y="824.0669">creates</text></g><!--link NOp to NCeCR--><g id="link_NOp_NCeCR"><path d="M387.769,772.193 C349.225,794.114 282.712,831.941 242.007,855.091 " fill="none" id="NOp-to-NCeCR" style="stroke:#800080;stroke-width:2.0;"/><polygon fill="#800080" points="237.175,857.839,246.9755,856.8644,241.5207,855.3662,243.019,849.9113,237.175,857.839" style="stroke:#800080;stroke-width:2.0;"/><text fill="#800080" font-family="sans-serif" font-size="13" lengthAdjust="spacing" textLength="48" x="320" y="824.0669">creates</text></g><!--link NOp to NCoCR--><g id="link_NOp_NCoCR"><path d="M411.82,772.138 C407.84,783.213 402.575,797.945 398,811 C393.095,824.998 387.677,840.754 383.446,853.13 " fill="none" id="NOp-to-NCoCR" style="stroke:#800080;stroke-width:2.0;"/><polygon fill="#800080" points="381.827,857.867,388.5228,850.6444,383.4441,853.1357,380.9527,848.057,381.827,857.867" style="stroke:#800080;stroke-width:2.0;"/><text fill="#800080" font-family="sans-serif" font-size="13" lengthAdjust="spacing" textLength="48" x="399" y="824.0669">creates</text></g><!--link NCR to NovaSecret--><g id="link_NCR_NovaSecret"><path d="M581.363,406.115 C570.178,414.994 556.323,426.038 544,436 C525.088,451.288 504.046,468.536 487.172,482.427 " fill="none" id="NCR-to-NovaSecret" style="stroke:#008000;stroke-width:2.0;"/><polygon fill="#008000" points="482.975,485.883,492.4653,483.2497,486.8348,482.7046,487.3799,477.0741,482.975,485.883" style="stroke:#008000;stroke-width:2.0;"/><text fill="#008000" font-family="sans-serif" font-size="13" lengthAdjust="spacing" textLength="49" x="545" y="449.0669">mounts</text></g><!--link NCR to NovaConfigMap--><g id="link_NCR_NovaConfigMap"><path d="M603,406.193 C603,424.75 603,475.706 603,498.507 " fill="none" id="NCR-to-NovaConfigMap" style="stroke:#008000;stroke-width:2.0;"/><polygon fill="#008000" points="603,503.549,607,494.549,603,498.549,599,494.549,603,503.549" style="stroke:#008000;stroke-width:2.0;"/><text fill="#008000" font-family="sans-serif" font-size="13" lengthAdjust="spacing" textLength="49" x="604" y="449.0669">mounts</text></g><!--link NECCR to secret--><g id="link_NECCR_secret"><path d="M296,650.193 C296,669.594 296,701.453 296,724.57 " fill="none" id="NECCR-to-secret" style="stroke:#008000;stroke-width:2.0;"/><polygon fill="#008000" points="296,729.656,300,720.656,296,724.656,292,720.656,296,729.656" style="stroke:#008000;stroke-width:2.0;"/><text fill="#008000" font-family="sans-serif" font-size="13" lengthAdjust="spacing" textLength="49" x="297" y="693.0669">mounts</text></g><!--link NECCR to configmap--><g id="link_NECCR_configmap"><path d="M271.538,650.204 C260.425,658.577 247.457,669.162 237,680 C224.501,692.954 212.409,729.876 202.847,743.54 " fill="none" id="NECCR-to-configmap" style="stroke:#008000;stroke-width:2.0;"/><polygon fill="#008000" points="199.963,747.703,208.3773,742.5845,202.8112,743.5935,201.8022,738.0274,199.963,747.703" style="stroke:#008000;stroke-width:2.0;"/><text fill="#008000" font-family="sans-serif" font-size="13" lengthAdjust="spacing" textLength="49" x="238" y="693.0669">mounts</text></g><!--link AEECR to AEEconfigmap--><g id="link_AEECR_AEEconfigmap"><path d="M596.591,894.193 C603.734,912.828 615.284,958.765 624.038,981.601 " fill="none" id="AEECR-to-AEEconfigmap" style="stroke:#008000;stroke-width:2.0;"/><polygon fill="#008000" points="625.861,986.356,626.3739,976.5205,624.071,981.6874,618.9041,979.3845,625.861,986.356" style="stroke:#008000;stroke-width:2.0;"/><text fill="#008000" font-family="sans-serif" font-size="13" lengthAdjust="spacing" textLength="49" x="616" y="937.0669">mounts</text></g><!--SRC=[fPNTRkCW48NlUGgKNcSV89LMgcnBsqfBAkS9i3s9h1906BVTjrz-R6oSEh6JcoY1-SuCCt12IoqKtlnfpvJZlGH5pUyDfWrk6r3ugM0jFBEQmovy-rK8LZrh-DPk3Q5ZpG1l3CmFcfOVE15SAy7mEwCSS98xkNtodkJuITRym-ifgAPoPkb2BAMQJfJIXvM8gCPonEhTAPKBDfRAbqaHyKbxQdNs5zxK1OCiwnLUicn5sknRW-AKcJcTPQj3zIHBrXGFZ0qdW3Mau5Nhhbt0nIqSAIWrvQUu4T5ztH_sqeiuTapOSKathOX8Pm5NPnHBPcE7QKI0cKcC8FEWIjeC17uJ1TxYLtvKr2DlhrqNJWg03tsOG_js7kjJ9q2I6GLKY9PNLFt3Hag17bSMjgpUuM8R7SsdyOBI9JhJw5JTdYLz8Nz_t3VT-157pcMssz-zFrov11ZlC9MIrT2Ci7GDXf1FuyXmNtQ54b_ZPddHMq5soyOCxrUsIh8Ba_IhjWpJMQfD6G6DlESUEbzF-vIMJwyr8ByPrCkGsOYqAtJiJqlhxDcnAorbVRukytpzJldw2JplbCBZZFy8ev3m_2Onv856a73Du05Mh6VxvanCOMejddUB5ZyRCz4nFJ66XG9XEitwv86TcCuoFBe-zoZy1m00]--></g></svg>
