<?xml version="1.0" encoding="us-ascii" standalone="no"?><svg xmlns="http://www.w3.org/2000/svg" xmlns:xlink="http://www.w3.org/1999/xlink" contentStyleType="text/css" height="1171px" preserveAspectRatio="none" style="width:778px;height:1171px;background:#FFFFFF;" version="1.1" viewBox="0 0 778 1171" width="778px" zoomAndPan="magnify"><defs/><g><!--entity user--><g id="elem_user"><ellipse cx="390" cy="14" fill="#0000FF" rx="8" ry="8" style="stroke:#0000FF;stroke-width:2.0;"/><path d="M390,22 L390,49 M377,30 L403,30 M390,49 L377,64 M390,49 L403,64 " fill="none" style="stroke:#0000FF;stroke-width:2.0;"/><text fill="#0000FF" font-family="sans-serif" font-size="14" lengthAdjust="spacing" textLength="119" x="330.5" y="79.9951">Human Operator</text></g><!--entity OCPCR--><g id="elem_OCPCR"><path d="M152.5,162.5 L152.5,193.7969 A2.5,2.5 0 0 0 155,196.2969 L375,196.2969 A2.5,2.5 0 0 0 377.5,193.7969 L377.5,170 L367.5,160 L155,160 A2.5,2.5 0 0 0 152.5,162.5 " fill="#FFC0CB" style="stroke:#FF0000;stroke-width:2.0;"/><path d="M367.5,160 L367.5,167.5 A2.5,2.5 0 0 0 370,170 L377.5,170 " fill="#FFC0CB" style="stroke:#FF0000;stroke-width:2.0;"/><text fill="#FF0000" font-family="sans-serif" font-size="14" lengthAdjust="spacing" textLength="205" x="162.5" y="182.9951">OpenStack Control Plane CR</text></g><!--entity ODPCR--><g id="elem_ODPCR"><path d="M412.5,162.5 L412.5,193.7969 A2.5,2.5 0 0 0 415,196.2969 L615,196.2969 A2.5,2.5 0 0 0 617.5,193.7969 L617.5,170 L607.5,160 L415,160 A2.5,2.5 0 0 0 412.5,162.5 " fill="#FFC0CB" style="stroke:#FF0000;stroke-width:2.0;"/><path d="M607.5,160 L607.5,167.5 A2.5,2.5 0 0 0 610,170 L617.5,170 " fill="#FFC0CB" style="stroke:#FF0000;stroke-width:2.0;"/><text fill="#FF0000" font-family="sans-serif" font-size="14" lengthAdjust="spacing" textLength="185" x="422.5" y="182.9951">OpenStack Data Plane CR</text></g><!--entity ODPNCR--><g id="elem_ODPNCR"><path d="M6,388.5 L6,419.7969 A2.5,2.5 0 0 0 8.5,422.2969 L249.5,422.2969 A2.5,2.5 0 0 0 252,419.7969 L252,396 L242,386 L8.5,386 A2.5,2.5 0 0 0 6,388.5 " fill="#F1F1F1" style="stroke:#FF0000;stroke-width:2.0;"/><path d="M242,386 L242,393.5 A2.5,2.5 0 0 0 244.5,396 L252,396 " fill="#F1F1F1" style="stroke:#FF0000;stroke-width:2.0;"/><text fill="#FF0000" font-family="sans-serif" font-size="14" lengthAdjust="spacing" textLength="226" x="16" y="408.9951">OpenStack Data Plane Node CR</text></g><!--entity ODPRCR--><g id="elem_ODPRCR"><path d="M287.5,388.5 L287.5,419.7969 A2.5,2.5 0 0 0 290,422.2969 L526,422.2969 A2.5,2.5 0 0 0 528.5,419.7969 L528.5,396 L518.5,386 L290,386 A2.5,2.5 0 0 0 287.5,388.5 " fill="#F1F1F1" style="stroke:#FF0000;stroke-width:2.0;"/><path d="M518.5,386 L518.5,393.5 A2.5,2.5 0 0 0 521,396 L528.5,396 " fill="#F1F1F1" style="stroke:#FF0000;stroke-width:2.0;"/><text fill="#FF0000" font-family="sans-serif" font-size="14" lengthAdjust="spacing" textLength="221" x="297.5" y="408.9951">OpenStack Data Plane Role CR</text></g><!--entity NCR--><g id="elem_NCR"><path d="M563.5,388.5 L563.5,419.7969 A2.5,2.5 0 0 0 566,422.2969 L640,422.2969 A2.5,2.5 0 0 0 642.5,419.7969 L642.5,396 L632.5,386 L566,386 A2.5,2.5 0 0 0 563.5,388.5 " fill="#F1F1F1" style="stroke:#FF0000;stroke-width:2.0;"/><path d="M632.5,386 L632.5,393.5 A2.5,2.5 0 0 0 635,396 L642.5,396 " fill="#F1F1F1" style="stroke:#FF0000;stroke-width:2.0;"/><text fill="#FF0000" font-family="sans-serif" font-size="14" lengthAdjust="spacing" textLength="59" x="573.5" y="408.9951">Nova CR</text></g><!--entity AEECR--><g id="elem_AEECR"><path d="M490.5,876.5 L490.5,907.7969 A2.5,2.5 0 0 0 493,910.2969 L687,910.2969 A2.5,2.5 0 0 0 689.5,907.7969 L689.5,884 L679.5,874 L493,874 A2.5,2.5 0 0 0 490.5,876.5 " fill="#F1F1F1" style="stroke:#FF0000;stroke-width:2.0;"/><path d="M679.5,874 L679.5,881.5 A2.5,2.5 0 0 0 682,884 L689.5,884 " fill="#F1F1F1" style="stroke:#FF0000;stroke-width:2.0;"/><text fill="#FF0000" font-family="sans-serif" font-size="14" lengthAdjust="spacing" textLength="179" x="500.5" y="896.9951">OpenStack AnsibleEE CR</text></g><!--entity NECCR--><g id="elem_NECCR"><path d="M189,632.5 L189,663.7969 A2.5,2.5 0 0 0 191.5,666.2969 L400.5,666.2969 A2.5,2.5 0 0 0 403,663.7969 L403,640 L393,630 L191.5,630 A2.5,2.5 0 0 0 189,632.5 " fill="#F1F1F1" style="stroke:#FF0000;stroke-width:2.0;"/><path d="M393,630 L393,637.5 A2.5,2.5 0 0 0 395.5,640 L403,640 " fill="#F1F1F1" style="stroke:#FF0000;stroke-width:2.0;"/><text fill="#FF0000" font-family="sans-serif" font-size="14" lengthAdjust="spacing" textLength="194" x="199" y="652.9951">Nova External Compute CR</text></g><!--entity NCeCR--><g id="elem_NCeCR"><path d="M152,876.5 L152,907.7969 A2.5,2.5 0 0 0 154.5,910.2969 L259.5,910.2969 A2.5,2.5 0 0 0 262,907.7969 L262,884 L252,874 L154.5,874 A2.5,2.5 0 0 0 152,876.5 " fill="#F1F1F1" style="stroke:#FF0000;stroke-width:2.0;"/><path d="M252,874 L252,881.5 A2.5,2.5 0 0 0 254.5,884 L262,884 " fill="#F1F1F1" style="stroke:#FF0000;stroke-width:2.0;"/><text fill="#FF0000" font-family="sans-serif" font-size="14" lengthAdjust="spacing" textLength="90" x="162" y="896.9951">Nova Cell CR</text></g><!--entity NCoCR--><g id="elem_NCoCR"><path d="M297,876.5 L297,907.7969 A2.5,2.5 0 0 0 299.5,910.2969 L452.5,910.2969 A2.5,2.5 0 0 0 455,907.7969 L455,884 L445,874 L299.5,874 A2.5,2.5 0 0 0 297,876.5 " fill="#F1F1F1" style="stroke:#FF0000;stroke-width:2.0;"/><path d="M445,874 L445,881.5 A2.5,2.5 0 0 0 447.5,884 L455,884 " fill="#F1F1F1" style="stroke:#FF0000;stroke-width:2.0;"/><text fill="#FF0000" font-family="sans-serif" font-size="14" lengthAdjust="spacing" textLength="138" x="307" y="896.9951">Nova Conductor CR</text></g><!--entity OSOp--><g id="elem_OSOp"><rect fill="#F1F1F1" height="36.2969" rx="2.5" ry="2.5" style="stroke:#181818;stroke-width:2.0;" width="170" x="323" y="273"/><text fill="#000000" font-family="sans-serif" font-size="14" lengthAdjust="spacing" textLength="150" x="333" y="295.9951">OpenStack Operator</text></g><!--entity DOp--><g id="elem_DOp"><rect fill="#F1F1F1" height="36.2969" rx="2.5" ry="2.5" style="stroke:#181818;stroke-width:2.0;" width="164" x="214" y="508"/><text fill="#000000" font-family="sans-serif" font-size="14" lengthAdjust="spacing" textLength="144" x="224" y="530.9951">Dataplane Operator</text></g><!--entity NOp--><g id="elem_NOp"><rect fill="#F1F1F1" height="36.2969" rx="2.5" ry="2.5" style="stroke:#181818;stroke-width:2.0;" width="125" x="355.5" y="752"/><text fill="#000000" font-family="sans-serif" font-size="14" lengthAdjust="spacing" textLength="105" x="365.5" y="774.9951">Nova Operator</text></g><!--entity AEEOp--><g id="elem_AEEOp"><rect fill="#F1F1F1" height="36.2969" rx="2.5" ry="2.5" style="stroke:#181818;stroke-width:2.0;" width="161" x="380.5" y="996"/><text fill="#000000" font-family="sans-serif" font-size="14" lengthAdjust="spacing" textLength="141" x="390.5" y="1018.9951">AnsibleEE Operator</text></g><g id="elem_AJI"><ellipse cx="348.0656" cy="1142.1131" fill="#F1F1F1" rx="83.5656" ry="19.1131" style="stroke:#008000;stroke-width:2.0;"/><text fill="#000000" font-family="sans-serif" font-size="14" lengthAdjust="spacing" textLength="127" x="284.1623" y="1145.0974">Ansible Job - Infra</text></g><g id="elem_AJNC"><ellipse cx="573.7877" cy="1141.8575" fill="#F1F1F1" rx="107.2877" ry="23.8575" style="stroke:#008000;stroke-width:2.0;"/><text fill="#000000" font-family="sans-serif" font-size="14" lengthAdjust="spacing" textLength="180" x="483.7877" y="1144.7042">Ansible Job - Nova Config</text></g><!--entity secret--><g id="elem_secret"><path d="M275.5,750 L275.5,774 M275.5,762 L292.5,762 " fill="none" style="stroke:#181818;stroke-width:2.0;"/><ellipse cx="304.5" cy="762" fill="#F1F1F1" rx="12" ry="12" style="stroke:#181818;stroke-width:2.0;"/><text fill="#000000" font-family="sans-serif" font-size="14" lengthAdjust="spacing" textLength="46" x="273" y="790.9951">secret</text></g><!--entity NovaSecret--><g id="elem_NovaSecret"><path d="M434.5,506 L434.5,530 M434.5,518 L451.5,518 " fill="none" style="stroke:#181818;stroke-width:2.0;"/><ellipse cx="463.5" cy="518" fill="#F1F1F1" rx="12" ry="12" style="stroke:#181818;stroke-width:2.0;"/><text fill="#000000" font-family="sans-serif" font-size="14" lengthAdjust="spacing" textLength="83" x="413.5" y="546.9951">NovaSecret</text></g><!--entity configmap--><g id="elem_configmap"><path d="M132,743 L173,743 A3.75,3.75 0 0 1 175.5,745.5 L182.5,764 L234,764 A2.5,2.5 0 0 1 236.5,766.5 L236.5,794.7969 A2.5,2.5 0 0 1 234,797.2969 L132,797.2969 A2.5,2.5 0 0 1 129.5,794.7969 L129.5,745.5 A2.5,2.5 0 0 1 132,743 " fill="#F1F1F1" style="stroke:#181818;stroke-width:2.0;"/><line style="stroke:#181818;stroke-width:2.0;" x1="129.5" x2="182.5" y1="764" y2="764"/><text fill="#000000" font-family="sans-serif" font-size="14" lengthAdjust="spacing" textLength="77" x="139.5" y="783.9951">configmap</text></g><!--entity NovaConfigMap--><g id="elem_NovaConfigMap"><path d="M534.5,499 L575.5,499 A3.75,3.75 0 0 1 578,501.5 L585,520 L671.5,520 A2.5,2.5 0 0 1 674,522.5 L674,550.7969 A2.5,2.5 0 0 1 671.5,553.2969 L534.5,553.2969 A2.5,2.5 0 0 1 532,550.7969 L532,501.5 A2.5,2.5 0 0 1 534.5,499 " fill="#F1F1F1" style="stroke:#181818;stroke-width:2.0;"/><line style="stroke:#181818;stroke-width:2.0;" x1="532" x2="585" y1="520" y2="520"/><text fill="#000000" font-family="sans-serif" font-size="14" lengthAdjust="spacing" textLength="112" x="542" y="539.9951">NovaConfigMap</text></g><!--entity AEEconfigmap--><g id="elem_AEEconfigmap"><path d="M579,987 L620,987 A3.75,3.75 0 0 1 622.5,989.5 L629.5,1008 L709,1008 A2.5,2.5 0 0 1 711.5,1010.5 L711.5,1038.7969 A2.5,2.5 0 0 1 709,1041.2969 L579,1041.2969 A2.5,2.5 0 0 1 576.5,1038.7969 L576.5,989.5 A2.5,2.5 0 0 1 579,987 " fill="#F1F1F1" style="stroke:#181818;stroke-width:2.0;"/><line style="stroke:#181818;stroke-width:2.0;" x1="576.5" x2="629.5" y1="1008" y2="1008"/><text fill="#000000" font-family="sans-serif" font-size="14" lengthAdjust="spacing" textLength="105" x="586.5" y="1027.9951">AEEconfigmap</text></g><!--link user to OCPCR--><g id="link_user_OCPCR"><path d="M353.509,83.18 C331.08,106.96 303.211,136.5 284.806,156.01 " fill="none" id="user-to-OCPCR" style="stroke:#FF0000;stroke-width:2.0;"/><polygon fill="#FF0000" points="281.255,159.77,290.3391,155.9648,284.6847,156.1317,284.5178,150.4773,281.255,159.77" style="stroke:#FF0000;stroke-width:2.0;"/><text fill="#FF0000" font-family="sans-serif" font-size="13" lengthAdjust="spacing" textLength="45" x="325" y="126.0669">applies</text></g><!--link user to ODPCR--><g id="link_user_ODPCR"><path d="M426.491,83.18 C448.92,106.96 476.789,136.5 495.194,156.01 " fill="none" id="user-to-ODPCR" style="stroke:#FF0000;stroke-width:2.0;"/><polygon fill="#FF0000" points="498.745,159.77,495.4822,150.4773,495.3153,156.1317,489.6609,155.9648,498.745,159.77" style="stroke:#FF0000;stroke-width:2.0;"/><text fill="#FF0000" font-family="sans-serif" font-size="13" lengthAdjust="spacing" textLength="45" x="469" y="126.0669">applies</text></g><!--reverse link OCPCR to OSOp--><g id="link_OCPCR_OSOp"><path d="M291.248,199.374 C318.345,220.408 360.164,252.869 385.709,272.697 " fill="none" id="OCPCR-backto-OSOp" style="stroke:#A52A2A;stroke-width:2.0;"/><polygon fill="#A52A2A" points="287.03,196.1,291.6873,204.7781,290.9799,199.1656,296.5924,198.4582,287.03,196.1" style="stroke:#A52A2A;stroke-width:2.0;"/><text fill="#A52A2A" font-family="sans-serif" font-size="13" lengthAdjust="spacing" textLength="64" x="347" y="239.0669">reconciles</text></g><!--reverse link ODPCR to OSOp--><g id="link_ODPCR_OSOp"><path d="M494.615,200.147 C474.297,221.225 443.476,253.198 424.601,272.778 " fill="none" id="ODPCR-backto-OSOp" style="stroke:#A52A2A;stroke-width:2.0;"/><polygon fill="#A52A2A" points="498.281,196.344,489.1552,200.0479,494.8111,199.9439,494.9151,205.5998,498.281,196.344" style="stroke:#A52A2A;stroke-width:2.0;"/><text fill="#A52A2A" font-family="sans-serif" font-size="13" lengthAdjust="spacing" textLength="64" x="469" y="239.0669">reconciles</text></g><!--link OSOp to NCR--><g id="link_OSOp_NCR"><path d="M438.041,309.1 C473.254,329.145 531.492,362.295 568.517,383.371 " fill="none" id="OSOp-to-NCR" style="stroke:#800080;stroke-width:2.0;"/><polygon fill="#800080" points="572.924,385.88,567.0831,377.95,568.5793,383.4055,563.1239,384.9016,572.924,385.88" style="stroke:#800080;stroke-width:2.0;"/><text fill="#800080" font-family="sans-serif" font-size="13" lengthAdjust="spacing" textLength="48" x="519" y="352.0669">creates</text></g><!--link OSOp to ODPNCR--><g id="link_OSOp_ODPNCR"><path d="M365.018,309.1 C314.124,329.348 229.614,362.971 176.731,384.01 " fill="none" id="OSOp-to-ODPNCR" style="stroke:#800080;stroke-width:2.0;"/><polygon fill="#800080" points="172.031,385.88,181.8722,386.2691,176.6767,384.0314,178.9144,378.836,172.031,385.88" style="stroke:#800080;stroke-width:2.0;"/><text fill="#800080" font-family="sans-serif" font-size="13" lengthAdjust="spacing" textLength="48" x="287" y="352.0669">creates</text></g><!--link OSOp to ODPRCR--><g id="link_OSOp_ODPRCR"><path d="M408,309.344 C408,328.568 408,359.63 408,380.661 " fill="none" id="OSOp-to-ODPRCR" style="stroke:#800080;stroke-width:2.0;"/><polygon fill="#800080" points="408,385.778,412,376.778,408,380.778,404,376.778,408,385.778" style="stroke:#800080;stroke-width:2.0;"/><text fill="#800080" font-family="sans-serif" font-size="13" lengthAdjust="spacing" textLength="48" x="409" y="352.0669">creates</text></g><!--reverse link ODPNCR to DOp--><g id="link_ODPNCR_DOp"><path d="M157.148,425.226 C189.418,448.414 241.756,486.022 272.117,507.839 " fill="none" id="ODPNCR-backto-DOp" style="stroke:#A52A2A;stroke-width:2.0;"/><polygon fill="#A52A2A" points="152.927,422.193,157.9,430.6941,156.9869,425.1115,162.5695,424.1984,152.927,422.193" style="stroke:#A52A2A;stroke-width:2.0;"/><text fill="#A52A2A" font-family="sans-serif" font-size="13" lengthAdjust="spacing" textLength="64" x="219" y="465.0669">reconciles</text></g><!--reverse link ODPRCR to DOp--><g id="link_ODPRCR_DOp"><path d="M377.574,425.047 C366.965,432.792 355.378,442.159 346,452 C329.573,469.236 314.709,492.362 305.537,507.926 " fill="none" id="ODPRCR-backto-DOp" style="stroke:#A52A2A;stroke-width:2.0;"/><polygon fill="#A52A2A" points="381.74,422.051,372.0978,424.058,377.6806,424.9702,376.7684,430.553,381.74,422.051" style="stroke:#A52A2A;stroke-width:2.0;"/><text fill="#A52A2A" font-family="sans-serif" font-size="13" lengthAdjust="spacing" textLength="64" x="347" y="465.0669">reconciles</text></g><!--reverse link NCR to NOp--><g id="link_NCR_NOp"><path d="M633.307,425.112 C655.106,441.809 682.155,467.821 691,499 C717.831,593.582 707.38,646.466 635,713 C593.179,751.443 528.479,764.251 480.6,768.161 " fill="none" id="NCR-backto-NOp" style="stroke:#A52A2A;stroke-width:2.0;"/><polygon fill="#A52A2A" points="629.303,422.103,634.0942,430.7079,633.2999,425.1071,638.9007,424.3129,629.303,422.103" style="stroke:#A52A2A;stroke-width:2.0;"/><text fill="#A52A2A" font-family="sans-serif" font-size="13" lengthAdjust="spacing" textLength="64" x="706" y="596.0669">reconciles</text></g><!--link DOp to AEECR--><g id="link_DOp_AEECR"><path d="M320.531,544.225 C346.845,563.388 389.022,596.135 420,630 C492.339,709.081 554.563,822.151 578.976,869.183 " fill="none" id="DOp-to-AEECR" style="stroke:#800080;stroke-width:2.0;"/><polygon fill="#800080" points="581.356,873.791,580.7793,863.959,579.0613,869.3487,573.6716,867.6306,581.356,873.791" style="stroke:#800080;stroke-width:2.0;"/><text fill="#800080" font-family="sans-serif" font-size="13" lengthAdjust="spacing" textLength="48" x="487" y="709.0669">creates</text></g><!--link DOp to NECCR--><g id="link_DOp_NECCR"><path d="M296,544.193 C296,565.401 296,601.498 296,624.787 " fill="none" id="DOp-to-NECCR" style="stroke:#800080;stroke-width:2.0;"/><polygon fill="#800080" points="296,629.839,300,620.839,296,624.839,292,620.839,296,629.839" style="stroke:#800080;stroke-width:2.0;"/><text fill="#800080" font-family="sans-serif" font-size="13" lengthAdjust="spacing" textLength="48" x="297" y="596.0669">creates</text></g><!--reverse link AEECR to AEEOp--><g id="link_AEECR_AEEOp"><path d="M567.37,913.786 C558.508,921.944 548.264,931.397 539,940 C518.479,959.058 495.029,981.032 479.245,995.85 " fill="none" id="AEECR-backto-AEEOp" style="stroke:#A52A2A;stroke-width:2.0;"/><polygon fill="#A52A2A" points="571.077,910.375,561.7454,913.5249,567.3974,913.7603,567.162,919.4123,571.077,910.375" style="stroke:#A52A2A;stroke-width:2.0;"/><text fill="#A52A2A" font-family="sans-serif" font-size="13" lengthAdjust="spacing" textLength="64" x="540" y="953.0669">reconciles</text></g><!--reverse link NECCR to NOp--><g id="link_NECCR_NOp"><path d="M323.527,669.213 C333.762,677.164 345.249,686.625 355,696 C373.585,713.868 392.608,736.655 404.817,751.978 " fill="none" id="NECCR-backto-NOp" style="stroke:#A52A2A;stroke-width:2.0;"/><polygon fill="#A52A2A" points="319.524,666.13,324.215,674.7899,323.4858,669.1803,329.0954,668.4511,319.524,666.13" style="stroke:#A52A2A;stroke-width:2.0;"/><text fill="#A52A2A" font-family="sans-serif" font-size="13" lengthAdjust="spacing" textLength="64" x="371" y="709.0669">reconciles</text></g><!--link AEEOp to AJI--><g id="link_AEEOp_AJI"><path d="M445.525,1032.256 C425.214,1054.903 389.557,1094.6626 367.445,1119.3181 " fill="none" id="AEEOp-to-AJI" style="stroke:#0000FF;stroke-width:2.0;"/><polygon fill="#0000FF" points="364.017,1123.1405,373.0035,1119.1103,367.355,1119.4179,367.0474,1113.7694,364.017,1123.1405" style="stroke:#0000FF;stroke-width:2.0;"/><text fill="#0000FF" font-family="sans-serif" font-size="13" lengthAdjust="spacing" textLength="37" x="409" y="1084.0669">yields</text></g><!--link AEEOp to AJNC--><g id="link_AEEOp_AJNC"><path d="M476.475,1032.256 C495.524,1053.496 528.071,1089.7868 550.283,1114.554 " fill="none" id="AEEOp-to-AJNC" style="stroke:#0000FF;stroke-width:2.0;"/><polygon fill="#0000FF" points="553.755,1118.426,550.7244,1109.055,550.4169,1114.7035,544.7684,1114.396,553.755,1118.426" style="stroke:#0000FF;stroke-width:2.0;"/><text fill="#0000FF" font-family="sans-serif" font-size="13" lengthAdjust="spacing" textLength="37" x="526" y="1084.0669">yields</text></g><!--link NOp to AEECR--><g id="link_NOp_AEECR"><path d="M435.129,788.238 C451.25,803.916 476.512,827.116 501,844 C515.732,854.157 532.919,863.709 548.24,871.515 " fill="none" id="NOp-to-AEECR" style="stroke:#800080;stroke-width:2.0;"/><polygon fill="#800080" points="552.93,873.88,546.6953,866.2558,548.4656,871.6285,543.0929,873.3988,552.93,873.88" style="stroke:#800080;stroke-width:2.0;"/><text fill="#800080" font-family="sans-serif" font-size="13" lengthAdjust="spacing" textLength="48" x="502" y="840.0669">creates</text></g><!--link NOp to NCeCR--><g id="link_NOp_NCeCR"><path d="M387.769,788.193 C349.225,810.114 282.712,847.941 242.007,871.091 " fill="none" id="NOp-to-NCeCR" style="stroke:#800080;stroke-width:2.0;"/><polygon fill="#800080" points="237.175,873.839,246.9755,872.8644,241.5207,871.3662,243.019,865.9113,237.175,873.839" style="stroke:#800080;stroke-width:2.0;"/><text fill="#800080" font-family="sans-serif" font-size="13" lengthAdjust="spacing" textLength="48" x="320" y="840.0669">creates</text></g><!--link NOp to NCoCR--><g id="link_NOp_NCoCR"><path d="M411.82,788.138 C407.84,799.213 402.575,813.945 398,827 C393.095,840.998 387.677,856.754 383.446,869.13 " fill="none" id="NOp-to-NCoCR" style="stroke:#800080;stroke-width:2.0;"/><polygon fill="#800080" points="381.827,873.867,388.5228,866.6444,383.4441,869.1357,380.9527,864.057,381.827,873.867" style="stroke:#800080;stroke-width:2.0;"/><text fill="#800080" font-family="sans-serif" font-size="13" lengthAdjust="spacing" textLength="48" x="399" y="840.0669">creates</text></g><!--link NCR to NovaSecret--><g id="link_NCR_NovaSecret"><path d="M581.363,422.115 C570.178,430.994 556.323,442.038 544,452 C525.088,467.288 504.046,484.536 487.172,498.427 " fill="none" id="NCR-to-NovaSecret" style="stroke:#008000;stroke-width:2.0;"/><polygon fill="#008000" points="482.975,501.883,492.4653,499.2497,486.8348,498.7046,487.3799,493.0741,482.975,501.883" style="stroke:#008000;stroke-width:2.0;"/><text fill="#008000" font-family="sans-serif" font-size="13" lengthAdjust="spacing" textLength="49" x="545" y="465.0669">mounts</text></g><!--link NCR to NovaConfigMap--><g id="link_NCR_NovaConfigMap"><path d="M603,422.193 C603,440.75 603,491.706 603,514.507 " fill="none" id="NCR-to-NovaConfigMap" style="stroke:#008000;stroke-width:2.0;"/><polygon fill="#008000" points="603,519.549,607,510.549,603,514.549,599,510.549,603,519.549" style="stroke:#008000;stroke-width:2.0;"/><text fill="#008000" font-family="sans-serif" font-size="13" lengthAdjust="spacing" textLength="49" x="604" y="465.0669">mounts</text></g><!--link NECCR to secret--><g id="link_NECCR_secret"><path d="M296,666.193 C296,685.594 296,717.453 296,740.57 " fill="none" id="NECCR-to-secret" style="stroke:#008000;stroke-width:2.0;"/><polygon fill="#008000" points="296,745.656,300,736.656,296,740.656,292,736.656,296,745.656" style="stroke:#008000;stroke-width:2.0;"/><text fill="#008000" font-family="sans-serif" font-size="13" lengthAdjust="spacing" textLength="49" x="297" y="709.0669">mounts</text></g><!--link NECCR to configmap--><g id="link_NECCR_configmap"><path d="M271.538,666.204 C260.425,674.577 247.457,685.162 237,696 C224.501,708.954 212.409,745.876 202.847,759.54 " fill="none" id="NECCR-to-configmap" style="stroke:#008000;stroke-width:2.0;"/><polygon fill="#008000" points="199.963,763.703,208.3773,758.5845,202.8112,759.5935,201.8022,754.0274,199.963,763.703" style="stroke:#008000;stroke-width:2.0;"/><text fill="#008000" font-family="sans-serif" font-size="13" lengthAdjust="spacing" textLength="49" x="238" y="709.0669">mounts</text></g><!--link AEECR to AEEconfigmap--><g id="link_AEECR_AEEconfigmap"><path d="M597.737,910.193 C606.123,928.828 619.681,971.6435 629.957,994.4795 " fill="none" id="AEECR-to-AEEconfigmap" style="stroke:#008000;stroke-width:2.0;"/><polygon fill="#008000" points="632.097,999.2345,632.0513,989.3857,630.0451,994.6749,624.7559,992.6688,632.097,999.2345" style="stroke:#008000;stroke-width:2.0;"/><text fill="#008000" font-family="sans-serif" font-size="13" lengthAdjust="spacing" textLength="49" x="620" y="953.0669">mounts</text></g><!--SRC=[fPLRRgCm58RVMOMLFZCBIAkHAa1gAzMfo0eCd4IeZcqPqsbtFxvmiKbfWRoWOFFzvsR_8QNY4ksUsWjXw2104ls-GwH1RGCItHMqXNjQCzWFl_uKd5Rt2ZwLNOkYKqq1xJJCZegKxoZXJ4bEqHib352IMxb3yfRaw4xKxDtfIQYcSdhfIYmbYaoKqfkLCAzyEMpqDahbdFfI-J8fp3z8JwsE_iYQkg2GPRt2OvQj29jzAf2CK3sdYsZLa3tEaZN90wLZ1R26vAngxR4RSFuR7aae5M7di171UJqS3yA9MDOdpBY4dLP0fBE0pJFu5iz-EquZ0FHCGYJI5weapKYW5rwW63spaoGEUNdkkd2M06pimnpQj_DKdpi1dCmeH0LlMKNa5z9I4fIVsR1bz8vNsz59FxKNb3RGXGHLTNk6T8cyVhklk_4j7bcNYUE_lJ_yS0WGsYCY1AsXyR1q3UQ2FCInTrhsXUJ_s9MpcKLDwa5pLkh3g-7q5jWW9k7njejM2dfbgMxL9AtdG9IF1awrXSxNqowaAJhTqh1yCzo7nQl9j2lOTyMbzVQixuLBMHVFvEpT_UNrseZRAdRnRCs3XSpzNMlogmPQXTJW6xzZ-8Rsuk4Im0qiNyzgmh8JWvlQfEFjei4lsXXLI4zCRg60dQsHQDO77zY9WIx3tPIwUMrH-0y0]--></g></svg>
