<?xml version="1.0" encoding="us-ascii" standalone="no"?><svg xmlns="http://www.w3.org/2000/svg" xmlns:xlink="http://www.w3.org/1999/xlink" contentStyleType="text/css" height="909px" preserveAspectRatio="none" style="width:578px;height:909px;background:#FFFFFF;" version="1.1" viewBox="0 0 578 909" width="578px" zoomAndPan="magnify"><defs/><g><!--entity user--><g id="elem_user"><ellipse cx="245.5" cy="14" fill="#0000FF" rx="8" ry="8" style="stroke:#0000FF;stroke-width:2.0;"/><path d="M245.5,22 L245.5,49 M232.5,30 L258.5,30 M245.5,49 L232.5,64 M245.5,49 L258.5,64 " fill="none" style="stroke:#0000FF;stroke-width:2.0;"/><text fill="#0000FF" font-family="sans-serif" font-size="14" lengthAdjust="spacing" textLength="119" x="186" y="79.9951">Human Operator</text></g><!--entity OCPCR--><g id="elem_OCPCR"><path d="M8,162.5 L8,193.7969 A2.5,2.5 0 0 0 10.5,196.2969 L230.5,196.2969 A2.5,2.5 0 0 0 233,193.7969 L233,170 L223,160 L10.5,160 A2.5,2.5 0 0 0 8,162.5 " fill="#FFC0CB" style="stroke:#FF0000;stroke-width:2.0;"/><path d="M223,160 L223,167.5 A2.5,2.5 0 0 0 225.5,170 L233,170 " fill="#FFC0CB" style="stroke:#FF0000;stroke-width:2.0;"/><text fill="#FF0000" font-family="sans-serif" font-size="14" lengthAdjust="spacing" textLength="205" x="18" y="182.9951">OpenStack Control Plane CR</text></g><!--entity ODPCR--><g id="elem_ODPCR"><path d="M268,162.5 L268,193.7969 A2.5,2.5 0 0 0 270.5,196.2969 L470.5,196.2969 A2.5,2.5 0 0 0 473,193.7969 L473,170 L463,160 L270.5,160 A2.5,2.5 0 0 0 268,162.5 " fill="#FFC0CB" style="stroke:#FF0000;stroke-width:2.0;"/><path d="M463,160 L463,167.5 A2.5,2.5 0 0 0 465.5,170 L473,170 " fill="#FFC0CB" style="stroke:#FF0000;stroke-width:2.0;"/><text fill="#FF0000" font-family="sans-serif" font-size="14" lengthAdjust="spacing" textLength="185" x="278" y="182.9951">OpenStack Data Plane CR</text></g><!--entity ODPNCR--><g id="elem_ODPNCR"><path d="M48.5,388.5 L48.5,419.7969 A2.5,2.5 0 0 0 51,422.2969 L292,422.2969 A2.5,2.5 0 0 0 294.5,419.7969 L294.5,396 L284.5,386 L51,386 A2.5,2.5 0 0 0 48.5,388.5 " fill="#F1F1F1" style="stroke:#FF0000;stroke-width:2.0;"/><path d="M284.5,386 L284.5,393.5 A2.5,2.5 0 0 0 287,396 L294.5,396 " fill="#F1F1F1" style="stroke:#FF0000;stroke-width:2.0;"/><text fill="#FF0000" font-family="sans-serif" font-size="14" lengthAdjust="spacing" textLength="226" x="58.5" y="408.9951">OpenStack Data Plane Node CR</text></g><!--entity ODPRCR--><g id="elem_ODPRCR"><path d="M330,388.5 L330,419.7969 A2.5,2.5 0 0 0 332.5,422.2969 L568.5,422.2969 A2.5,2.5 0 0 0 571,419.7969 L571,396 L561,386 L332.5,386 A2.5,2.5 0 0 0 330,388.5 " fill="#F1F1F1" style="stroke:#FF0000;stroke-width:2.0;"/><path d="M561,386 L561,393.5 A2.5,2.5 0 0 0 563.5,396 L571,396 " fill="#F1F1F1" style="stroke:#FF0000;stroke-width:2.0;"/><text fill="#FF0000" font-family="sans-serif" font-size="14" lengthAdjust="spacing" textLength="221" x="340" y="408.9951">OpenStack Data Plane Role CR</text></g><!--entity AEECR--><g id="elem_AEECR"><path d="M232,614.5 L232,645.7969 A2.5,2.5 0 0 0 234.5,648.2969 L428.5,648.2969 A2.5,2.5 0 0 0 431,645.7969 L431,622 L421,612 L234.5,612 A2.5,2.5 0 0 0 232,614.5 " fill="#F1F1F1" style="stroke:#FF0000;stroke-width:2.0;"/><path d="M421,612 L421,619.5 A2.5,2.5 0 0 0 423.5,622 L431,622 " fill="#F1F1F1" style="stroke:#FF0000;stroke-width:2.0;"/><text fill="#FF0000" font-family="sans-serif" font-size="14" lengthAdjust="spacing" textLength="179" x="242" y="634.9951">OpenStack AnsibleEE CR</text></g><!--entity OSOp--><g id="elem_OSOp"><rect fill="#F1F1F1" height="36.2969" rx="2.5" ry="2.5" style="stroke:#181818;stroke-width:2.0;" width="170" x="178.5" y="273"/><text fill="#000000" font-family="sans-serif" font-size="14" lengthAdjust="spacing" textLength="150" x="188.5" y="295.9951">OpenStack Operator</text></g><!--entity DOp--><g id="elem_DOp"><rect fill="#F1F1F1" height="36.2969" rx="2.5" ry="2.5" style="stroke:#181818;stroke-width:2.0;" width="164" x="249.5" y="499"/><text fill="#000000" font-family="sans-serif" font-size="14" lengthAdjust="spacing" textLength="144" x="259.5" y="521.9951">Dataplane Operator</text></g><!--entity AEEOp--><g id="elem_AEEOp"><rect fill="#F1F1F1" height="36.2969" rx="2.5" ry="2.5" style="stroke:#181818;stroke-width:2.0;" width="161" x="122" y="734"/><text fill="#000000" font-family="sans-serif" font-size="14" lengthAdjust="spacing" textLength="141" x="132" y="756.9951">AnsibleEE Operator</text></g><g id="elem_AJI"><ellipse cx="89.5656" cy="880.1131" fill="#F1F1F1" rx="83.5656" ry="19.1131" style="stroke:#008000;stroke-width:2.0;"/><text fill="#000000" font-family="sans-serif" font-size="14" lengthAdjust="spacing" textLength="127" x="25.6623" y="883.0974">Ansible Job - Infra</text></g><g id="elem_AJNC"><ellipse cx="315.2877" cy="879.8575" fill="#F1F1F1" rx="107.2877" ry="23.8575" style="stroke:#008000;stroke-width:2.0;"/><text fill="#000000" font-family="sans-serif" font-size="14" lengthAdjust="spacing" textLength="180" x="225.2877" y="882.7042">Ansible Job - Nova Config</text></g><!--entity AEEconfigmap--><g id="elem_AEEconfigmap"><path d="M320.5,725 L361.5,725 A3.75,3.75 0 0 1 364,727.5 L371,746 L450.5,746 A2.5,2.5 0 0 1 453,748.5 L453,776.7969 A2.5,2.5 0 0 1 450.5,779.2969 L320.5,779.2969 A2.5,2.5 0 0 1 318,776.7969 L318,727.5 A2.5,2.5 0 0 1 320.5,725 " fill="#F1F1F1" style="stroke:#181818;stroke-width:2.0;"/><line style="stroke:#181818;stroke-width:2.0;" x1="318" x2="371" y1="746" y2="746"/><text fill="#000000" font-family="sans-serif" font-size="14" lengthAdjust="spacing" textLength="105" x="328" y="765.9951">AEEconfigmap</text></g><!--link user to OCPCR--><g id="link_user_OCPCR"><path d="M209.009,83.181 C185.084,108.541 159.0894,136.0957 140.8724,155.4047 " fill="none" id="user-to-OCPCR" style="stroke:#FF0000;stroke-width:2.0;"/><polygon fill="#FF0000" points="136.755,159.769,145.8407,155.9676,140.1862,156.1321,140.0217,150.4777,136.755,159.769" style="stroke:#FF0000;stroke-width:2.0;"/><text fill="#FF0000" font-family="sans-serif" font-size="13" lengthAdjust="spacing" textLength="45" x="180.5" y="126.0669">applies</text></g><!--link user to ODPCR--><g id="link_user_ODPCR"><path d="M281.991,83.181 C305.916,108.541 331.9106,136.0957 350.1276,155.4047 " fill="none" id="user-to-ODPCR" style="stroke:#FF0000;stroke-width:2.0;"/><polygon fill="#FF0000" points="354.245,159.769,350.9783,150.4777,350.8138,156.1321,345.1593,155.9676,354.245,159.769" style="stroke:#FF0000;stroke-width:2.0;"/><text fill="#FF0000" font-family="sans-serif" font-size="13" lengthAdjust="spacing" textLength="45" x="324.5" y="126.0669">applies</text></g><!--reverse link OCPCR to OSOp--><g id="link_OCPCR_OSOp"><path d="M147.2696,199.7791 C174.0636,220.5781 214.298,251.808 241.209,272.697 " fill="none" id="OCPCR-backto-OSOp" style="stroke:#A52A2A;stroke-width:2.0;"/><polygon fill="#A52A2A" points="142.53,196.1,147.1866,204.7785,146.4797,199.166,152.0922,198.459,142.53,196.1" style="stroke:#A52A2A;stroke-width:2.0;"/><text fill="#A52A2A" font-family="sans-serif" font-size="13" lengthAdjust="spacing" textLength="64" x="202.5" y="239.0669">reconciles</text></g><!--reverse link ODPCR to OSOp--><g id="link_ODPCR_OSOp"><path d="M349.617,200.6638 C329.516,221.5168 300.151,251.979 280.101,272.778 " fill="none" id="ODPCR-backto-OSOp" style="stroke:#A52A2A;stroke-width:2.0;"/><polygon fill="#A52A2A" points="353.781,196.344,344.6551,200.0477,350.311,199.9438,350.4148,205.5997,353.781,196.344" style="stroke:#A52A2A;stroke-width:2.0;"/><text fill="#A52A2A" font-family="sans-serif" font-size="13" lengthAdjust="spacing" textLength="64" x="324.5" y="239.0669">reconciles</text></g><!--link OSOp to ODPNCR--><g id="link_OSOp_ODPNCR"><path d="M249.125,309.344 C231.841,330.197 206.8418,360.3595 189.6028,381.1585 " fill="none" id="OSOp-to-ODPNCR" style="stroke:#800080;stroke-width:2.0;"/><polygon fill="#800080" points="185.774,385.778,194.5969,381.4013,188.9647,381.9284,188.4376,376.2962,185.774,385.778" style="stroke:#800080;stroke-width:2.0;"/><text fill="#800080" font-family="sans-serif" font-size="13" lengthAdjust="spacing" textLength="48" x="224.5" y="352.0669">creates</text></g><!--link OSOp to ODPRCR--><g id="link_OSOp_ODPRCR"><path d="M292.309,309.1 C327.45,329.959 381.3435,361.9493 416.4985,382.8173 " fill="none" id="OSOp-to-ODPRCR" style="stroke:#800080;stroke-width:2.0;"/><polygon fill="#800080" points="421.658,385.88,415.9606,377.8464,417.3584,383.3278,411.877,384.7257,421.658,385.88" style="stroke:#800080;stroke-width:2.0;"/><text fill="#800080" font-family="sans-serif" font-size="13" lengthAdjust="spacing" textLength="48" x="368.5" y="352.0669">creates</text></g><!--reverse link ODPNCR to DOp--><g id="link_ODPNCR_DOp"><path d="M201.0788,425.5201 C231.1458,446.3791 276.743,478.012 306.823,498.88 " fill="none" id="ODPNCR-backto-DOp" style="stroke:#A52A2A;stroke-width:2.0;"/><polygon fill="#A52A2A" points="196.149,422.1,201.2637,430.5166,200.2572,424.9501,205.8238,423.9436,196.149,422.1" style="stroke:#A52A2A;stroke-width:2.0;"/><text fill="#A52A2A" font-family="sans-serif" font-size="13" lengthAdjust="spacing" textLength="64" x="262.5" y="465.0669">reconciles</text></g><!--reverse link ODPRCR to DOp--><g id="link_ODPRCR_DOp"><path d="M427.7795,426.1927 C405.4825,446.9917 372.445,477.808 350.05,498.697 " fill="none" id="ODPRCR-backto-DOp" style="stroke:#A52A2A;stroke-width:2.0;"/><polygon fill="#A52A2A" points="432.167,422.1,422.8573,425.3141,428.5108,425.5106,428.3143,431.164,432.167,422.1" style="stroke:#A52A2A;stroke-width:2.0;"/><text fill="#A52A2A" font-family="sans-serif" font-size="13" lengthAdjust="spacing" textLength="64" x="398.5" y="465.0669">reconciles</text></g><!--link DOp to AEECR--><g id="link_DOp_AEECR"><path d="M331.5,535.344 C331.5,556.197 331.5,584.979 331.5,605.778 " fill="none" id="DOp-to-AEECR" style="stroke:#800080;stroke-width:2.0;"/><polygon fill="#800080" points="331.5,611.778,335.5,602.778,331.5,606.778,327.5,602.778,331.5,611.778" style="stroke:#800080;stroke-width:2.0;"/><text fill="#800080" font-family="sans-serif" font-size="13" lengthAdjust="spacing" textLength="48" x="332.5" y="578.0669">creates</text></g><!--reverse link AEECR to AEEOp--><g id="link_AEECR_AEEOp"><path d="M307.6765,652.3117 C297.8495,661.1437 290.216,668.08 279.5,678 C259.088,696.896 235.966,718.898 220.433,733.768 " fill="none" id="AEECR-backto-AEEOp" style="stroke:#A52A2A;stroke-width:2.0;"/><polygon fill="#A52A2A" points="312.139,648.301,302.7714,651.342,308.4202,651.6433,308.119,657.2921,312.139,648.301" style="stroke:#A52A2A;stroke-width:2.0;"/><text fill="#A52A2A" font-family="sans-serif" font-size="13" lengthAdjust="spacing" textLength="64" x="280.5" y="691.0669">reconciles</text></g><!--link AEEOp to AJI--><g id="link_AEEOp_AJI"><path d="M187.025,770.256 C165.627,794.115 131.2029,832.4987 109.5227,856.6736 " fill="none" id="AEEOp-to-AJI" style="stroke:#0000FF;stroke-width:2.0;"/><polygon fill="#0000FF" points="105.5168,861.1405,114.5036,857.1108,108.8551,857.4181,108.5477,851.7696,105.5168,861.1405" style="stroke:#0000FF;stroke-width:2.0;"/><text fill="#0000FF" font-family="sans-serif" font-size="13" lengthAdjust="spacing" textLength="37" x="150.5" y="822.0669">yields</text></g><!--link AEEOp to AJNC--><g id="link_AEEOp_AJNC"><path d="M217.975,770.256 C238.043,792.632 269.0861,827.2461 291.2491,851.9592 " fill="none" id="AEEOp-to-AJNC" style="stroke:#0000FF;stroke-width:2.0;"/><polygon fill="#0000FF" points="295.255,856.426,292.224,847.0551,291.9167,852.7036,286.2682,852.3964,295.255,856.426" style="stroke:#0000FF;stroke-width:2.0;"/><text fill="#0000FF" font-family="sans-serif" font-size="13" lengthAdjust="spacing" textLength="37" x="267.5" y="822.0669">yields</text></g><!--link AEECR to AEEconfigmap--><g id="link_AEECR_AEEconfigmap"><path d="M339.237,648.193 C348.219,668.154 360.6738,708.0336 371.1348,731.2796 " fill="none" id="AEECR-to-AEEconfigmap" style="stroke:#008000;stroke-width:2.0;"/><polygon fill="#008000" points="373.597,736.7511,373.5513,726.9024,371.5451,732.1915,366.256,730.1854,373.597,736.7511" style="stroke:#008000;stroke-width:2.0;"/><text fill="#008000" font-family="sans-serif" font-size="13" lengthAdjust="spacing" textLength="49" x="360.5" y="691.0669">mounts</text></g><!--SRC=[fPJBReCm44NtVCKeMTCFIAfA4KHgie28VC40GuJgs9OnVVnzRKp2IxHvR12CTExSiU-0cHOA5k_r6Jd4aXIQxmLW1NL52fOfgsdDIawhwzjBAbY-rlIjcvhd5IKZM1YO7pLc7n08hfLWS6382OAaaOk3Gv30KfRym-afoiTofZGH2r7ZI2byMYaIULykideFIYM2zQMIUwKsl2fJHjljHMIptVwduIdADFBJK6bmU_4nbawaOVk4DIyRxmCYd0KwYmF061qYdebCXbL7m5wauCEE5meTij-ravqK4UzccqCZyOasJqLvQWMYO4R1AypJHDROoXhWZ1Dt2dp_xHB5FquOO0Ke9Ikfwc7XFPXhykhxlQjOfKfyySaIsQ8XpOaBdfbu63Xy1hP8QxXBjgoLP9C5TbNhErE4UaGdzzEkfNKUFZ9ryZ0SjhRxwtEhQyVOlhrCtzpPCKtlQxpdVfQ6_2c9vKFgckcRC6Er7NIKy_5AEBufscdFekQw-WK0]--></g></svg>